<svg width="82" height="48" viewBox="0 0 82 48" fill="none" xmlns="http://www.w3.org/2000/svg">
<path d="M12.8 18.4H13.2C14.74 18.4 16 19.66 16 21.2V35.2C16 36.74 14.74 38 13.2 38H12.8C11.26 38 10 36.74 10 35.2V21.2C10 19.66 11.26 18.4 12.8 18.4ZM24 10C25.54 10 26.8 11.26 26.8 12.8V35.2C26.8 36.74 25.54 38 24 38C22.46 38 21.2 36.74 21.2 35.2V12.8C21.2 11.26 22.46 10 24 10ZM35.2 26C36.74 26 38 27.26 38 28.8V35.2C38 36.74 36.74 38 35.2 38C33.66 38 32.4 36.74 32.4 35.2V28.8C32.4 27.26 33.66 26 35.2 26Z" fill="#9747FF"/>
<path d="M46.8 18.4H47.2C48.74 18.4 50 19.66 50 21.2V35.2C50 36.74 48.74 38 47.2 38H46.8C45.26 38 44 36.74 44 35.2V21.2C44 19.66 45.26 18.4 46.8 18.4ZM58 10C59.54 10 60.8 11.26 60.8 12.8V35.2C60.8 36.74 59.54 38 58 38C56.46 38 55.2 36.74 55.2 35.2V12.8C55.2 11.26 56.46 10 58 10ZM69.2 26C70.74 26 72 27.26 72 28.8V35.2C72 36.74 70.74 38 69.2 38C67.66 38 66.4 36.74 66.4 35.2V28.8C66.4 27.26 67.66 26 69.2 26Z" fill="#9747FF"/>
</svg>
