<svg width="41" height="40" viewBox="0 0 41 40" fill="none" xmlns="http://www.w3.org/2000/svg">
<path fill-rule="evenodd" clip-rule="evenodd" d="M8.33374 6.66699C7.89169 6.66699 7.46775 6.8426 7.15517 7.15517C6.84259 7.46775 6.66699 7.89169 6.66699 8.33374V20.001H15.0007C15.4428 20.001 15.8667 20.1766 16.1793 20.4892C16.4919 20.8017 16.6675 21.2257 16.6675 21.6677V21.8344C16.6675 23.5845 18.0842 25.0012 19.8343 25.0012H20.1676C21.0075 25.0012 21.813 24.6676 22.4069 24.0737C23.0008 23.4798 23.3345 22.6743 23.3345 21.8344V21.6677C23.3345 21.2257 23.5101 20.8017 23.8226 20.4892C24.1352 20.1766 24.5592 20.001 25.0012 20.001H33.3349V8.33374C33.3349 7.89169 33.1593 7.46775 32.8468 7.15517C32.5342 6.8426 32.1103 6.66699 31.6682 6.66699H8.33374ZM33.3349 23.3345H26.4946C26.1563 24.7582 25.3478 26.0262 24.1997 26.9336C23.0516 27.841 21.631 28.3346 20.1676 28.3347H19.8343C18.3709 28.3346 16.9504 27.841 15.8023 26.9336C14.6541 26.0262 13.8456 24.7582 13.5073 23.3345H6.66699V31.6682C6.66699 32.1103 6.84259 32.5342 7.15517 32.8468C7.46775 33.1594 7.89169 33.335 8.33374 33.335H31.6682C32.1103 33.335 32.5342 33.1594 32.8468 32.8468C33.1593 32.5342 33.3349 32.1103 33.3349 31.6682V23.3345ZM3.3335 8.33374C3.3335 7.00759 3.86031 5.73576 4.79803 4.79803C5.73576 3.86031 7.00759 3.3335 8.33374 3.3335H31.6682C32.9943 3.3335 34.2662 3.86031 35.2039 4.79803C36.1416 5.73576 36.6684 7.00759 36.6684 8.33374V31.6682C36.6684 32.9944 36.1416 34.2662 35.2039 35.2039C34.2662 36.1416 32.9943 36.6685 31.6682 36.6685H8.33374C7.00759 36.6685 5.73576 36.1416 4.79803 35.2039C3.86031 34.2662 3.3335 32.9944 3.3335 31.6682V8.33374Z" fill="white"/>
</svg>
