<svg width="41" height="40" viewBox="0 0 41 40" fill="none" xmlns="http://www.w3.org/2000/svg">
<path d="M20.001 15H26.668C27.5847 15 28.3347 14.25 28.3347 13.3333C28.3347 12.4167 27.5847 11.6667 26.668 11.6667H20.001C19.0843 11.6667 18.3342 12.4167 18.3342 13.3333C18.3342 14.25 19.0843 15 20.001 15ZM20.001 21.6667H26.668C27.5847 21.6667 28.3347 20.9167 28.3347 20C28.3347 19.0833 27.5847 18.3333 26.668 18.3333H20.001C19.0843 18.3333 18.3342 19.0833 18.3342 20C18.3342 20.9167 19.0843 21.6667 20.001 21.6667ZM20.001 28.3333H26.668C27.5847 28.3333 28.3347 27.5833 28.3347 26.6667C28.3347 25.75 27.5847 25 26.668 25H20.001C19.0843 25 18.3342 25.75 18.3342 26.6667C18.3342 27.5833 19.0843 28.3333 20.001 28.3333ZM11.6672 11.6667H15.0007V15H11.6672V11.6667ZM11.6672 18.3333H15.0007V21.6667H11.6672V18.3333ZM11.6672 25H15.0007V28.3333H11.6672V25ZM33.3349 5H6.66699C5.75028 5 5.00024 5.75 5.00024 6.66667V33.3333C5.00024 34.25 5.75028 35 6.66699 35H33.3349C34.2517 35 35.0017 34.25 35.0017 33.3333V6.66667C35.0017 5.75 34.2517 5 33.3349 5ZM31.6682 31.6667H8.33374V8.33333H31.6682V31.6667Z" fill="white"/>
</svg>
