<svg width="41" height="40" viewBox="0 0 41 40" fill="none" xmlns="http://www.w3.org/2000/svg">
<path fill-rule="evenodd" clip-rule="evenodd" d="M20.001 6.66699C20.443 6.66699 20.867 6.8426 21.1795 7.15517C21.4921 7.46775 21.6677 7.89169 21.6677 8.33374V18.3342H31.6682C32.1102 18.3342 32.5342 18.5098 32.8468 18.8224C33.1593 19.135 33.3349 19.5589 33.3349 20.001C33.3349 20.443 33.1593 20.867 32.8468 21.1795C32.5342 21.4921 32.1102 21.6677 31.6682 21.6677H21.6677V31.6682C21.6677 32.1103 21.4921 32.5342 21.1795 32.8468C20.867 33.1593 20.443 33.3349 20.001 33.3349C19.5589 33.3349 19.135 33.1593 18.8224 32.8468C18.5098 32.5342 18.3342 32.1103 18.3342 31.6682V21.6677H8.33374C7.89169 21.6677 7.46775 21.4921 7.15517 21.1795C6.8426 20.867 6.66699 20.443 6.66699 20.001C6.66699 19.5589 6.8426 19.135 7.15517 18.8224C7.46775 18.5098 7.89169 18.3342 8.33374 18.3342H18.3342V8.33374C18.3342 7.89169 18.5098 7.46775 18.8224 7.15517C19.135 6.8426 19.5589 6.66699 20.001 6.66699Z" fill="#F76DC0"/>
</svg>
