<svg width="48" height="48" viewBox="0 0 48 48" fill="none" xmlns="http://www.w3.org/2000/svg">
<path fill-rule="evenodd" clip-rule="evenodd" d="M33.34 26.26C36.08 28.12 38 30.64 38 34V40H44C45.1 40 46 39.1 46 38V34C46 29.64 38.86 27.06 33.34 26.26Z" fill="#FF5B5B"/>
<path d="M18 24C22.4183 24 26 20.4183 26 16C26 11.5817 22.4183 8 18 8C13.5817 8 10 11.5817 10 16C10 20.4183 13.5817 24 18 24Z" fill="#FF5B5B"/>
<path fill-rule="evenodd" clip-rule="evenodd" d="M30 24C34.42 24 38 20.42 38 16C38 11.58 34.42 8 30 8C29.06 8 28.18 8.2 27.34 8.48C29 10.54 30 13.16 30 16C30 18.84 29 21.46 27.34 23.52C28.18 23.8 29.06 24 30 24Z" fill="#FF5B5B"/>
<path fill-rule="evenodd" clip-rule="evenodd" d="M18 26C12.66 26 2 28.68 2 34V38C2 39.1 2.9 40 4 40H32C33.1 40 34 39.1 34 38V34C34 28.68 23.34 26 18 26Z" fill="#FF5B5B"/>
</svg>
