<svg width="31" height="30" viewBox="0 0 31 30" fill="none" xmlns="http://www.w3.org/2000/svg">
<path d="M26.6682 0H3.33374C1.50032 0 0.000244141 1.5 0.000244141 3.33333V26.6667C0.000244141 28.5 1.50032 30 3.33374 30H26.6682C28.5016 30 30.0017 28.5 30.0017 26.6667V3.33333C30.0017 1.5 28.5016 0 26.6682 0ZM8.33398 23.3333C7.41727 23.3333 6.66723 22.5833 6.66723 21.6667V16.6667C6.66723 15.75 7.41727 15 8.33398 15C9.25069 15 10.0007 15.75 10.0007 16.6667V21.6667C10.0007 22.5833 9.25069 23.3333 8.33398 23.3333ZM15.001 23.3333C14.0843 23.3333 13.3342 22.5833 13.3342 21.6667V20C13.3342 19.0833 14.0843 18.3333 15.001 18.3333C15.9177 18.3333 16.6677 19.0833 16.6677 20V21.6667C16.6677 22.5833 15.9177 23.3333 15.001 23.3333ZM15.001 15C14.0843 15 13.3342 14.25 13.3342 13.3333C13.3342 12.4167 14.0843 11.6667 15.001 11.6667C15.9177 11.6667 16.6677 12.4167 16.6677 13.3333C16.6677 14.25 15.9177 15 15.001 15ZM21.668 23.3333C20.7512 23.3333 20.0012 22.5833 20.0012 21.6667V8.33333C20.0012 7.41667 20.7512 6.66667 21.668 6.66667C22.5847 6.66667 23.3347 7.41667 23.3347 8.33333V21.6667C23.3347 22.5833 22.5847 23.3333 21.668 23.3333Z" fill="white"/>
</svg>
